# xmcd CD database file
# Generated: Son Sep 28 00:54:21 2003 by KSCD
# 
# Track frame offsets:
#       150
#       11668
#       24112
#       36321
#       47343
#       59870
#       73640
#       96906
#       109283
#       121914
#       136726
#       148783
#       162254
#       174692
#       188393
#       200931
#       214426
#       225876
#
# Disc length: 3175 seconds
#
# Revision: 0
# Processed by: cddbd v1.4PL0 Copyright (c) Steve Scherf et al.
# Submitted via: Kscd 1.3.3
#
DISCID=020c6512
DTITLE=Various Artist - The story of Rhythm and Blues [CD3)
DYEAR=1900
DGENRE=
TTITLE0=Crown Prince Waterford - Move your hand baby 
TTITLE1=Julia Lee - That's what I like 
TTITLE2=Louis Jordan - Caledonia 
TTITLE3=Pee Wee King - 49 Woman 
TTITLE4=Joe Liggins and his Honeydrippers - Drippers Boogie 
TTITLE5=Cab Calloway and his Orchestra - The Calloway boogie 
TTITLE6=Howlin' Wolf - Evil 
TTITLE7=Jimmy Preston - Hucklebuck baby 
TTITLE8=Jimmy Rushing with Count Basie - Money is honey 
TTITLE9=Blue Lu Barker - Here's a little girl 
TTITLE10=Jim Wynn and his Blues Masters - Fat meat 
TTITLE11=Roy Brown - Long 'bout midnight 
TTITLE12=Helen Hume and the Buck Clayton Allstars - I don't know his name 
TTITLE13=Joe Swift - That's your last boogie 
TTITLE14=Jesse Price - Jump it with a shuffle 
TTITLE15=Sonny Boy Williamson - Better cut that out 
TTITLE16=Wynonie Harris - Hard ridin' mama 
TTITLE17=Louis Jordan - Buzz me 
EXTD=(c) Digimode Entertainment Ltd. UK 
EXTT0=Waterford 
EXTT1=Lee 
EXTT2=Fleece - Moore 
EXTT3=Jirby 
EXTT4=Liggins 
EXTT5=Calloway - Gibson 
EXTT6=Burnett 
EXTT7=Waters 
EXTT8=Hopkins - Robins 
EXTT9=Barker 
EXTT10=Baxter - Wynn 
EXTT11=Brown 
EXTT12=Humes 
EXTT13=Swift 
EXTT14=Baxter 
EXTT15=Williamson 
EXTT16=Tooms - Theard 
EXTT17=Moore - Baxter 
PLAYORDER=
